<?xml version="1.0" encoding="UTF-8" ?>
<!DOCTYPE svg PUBLIC "-//W3C//DTD SVG 1.1//EN" "http://www.w3.org/Graphics/SVG/1.1/DTD/svg11.dtd">
<svg width="334pt" height="332pt" viewBox="0 0 334 332" version="1.1" xmlns="http://www.w3.org/2000/svg">
<g id="#171717ff">
<path fill="#171717" opacity="1.00" d=" M 0.00 0.00 L 334.00 0.00 L 334.00 332.00 L 0.00 332.00 L 0.00 0.00 M 79.42 106.44 C 77.33 107.66 75.09 108.70 73.30 110.36 C 72.50 111.75 72.86 113.44 72.73 114.97 C 72.80 145.65 72.75 176.33 72.75 207.00 C 72.86 210.22 72.35 213.54 73.19 216.69 C 75.67 218.70 78.58 220.08 81.31 221.70 C 106.70 236.29 132.03 250.98 157.41 265.59 C 159.93 266.96 162.21 268.90 165.01 269.69 C 168.06 268.89 170.53 266.71 173.30 265.26 C 200.37 249.72 227.33 233.97 254.44 218.48 C 255.67 217.63 257.53 216.87 257.30 215.04 C 257.41 181.01 257.31 146.97 257.35 112.94 C 257.85 110.48 255.58 109.23 253.81 108.20 C 224.15 91.30 194.75 73.93 165.03 57.15 C 136.40 73.41 107.99 90.07 79.42 106.44 Z" />
<path fill="#171717" opacity="1.00" d=" M 134.46 98.45 C 144.61 92.58 154.66 86.52 165.00 81.00 C 166.57 81.74 168.14 82.50 169.66 83.35 C 191.94 96.41 214.47 109.08 236.69 122.24 C 236.73 129.88 236.79 137.53 236.66 145.17 C 232.71 143.78 229.30 141.32 225.67 139.31 C 205.40 127.80 185.39 115.81 165.02 104.49 C 161.70 106.32 158.16 107.87 155.27 110.36 C 154.51 111.76 154.82 113.43 154.70 114.96 C 154.76 131.65 154.76 148.34 154.70 165.04 C 154.83 166.92 154.31 169.57 156.50 170.48 C 170.46 178.51 184.44 186.51 198.34 194.62 C 200.88 195.99 203.18 197.94 206.00 198.71 C 209.76 197.54 212.90 194.98 216.27 193.00 C 216.32 189.36 216.62 185.69 216.17 182.06 C 215.83 180.75 214.37 180.30 213.40 179.55 C 200.74 172.24 188.03 165.00 175.42 157.60 C 175.26 149.77 175.34 141.93 175.40 134.10 C 195.88 145.74 216.21 157.63 236.61 169.41 C 236.86 181.20 236.68 192.99 236.68 204.78 C 226.62 210.96 216.30 216.74 206.00 222.52 C 182.06 209.02 158.46 194.91 134.47 181.48 C 134.34 153.81 134.36 126.12 134.46 98.45 Z" />
<path fill="#171717" opacity="1.00" d=" M 93.41 122.27 C 100.08 118.35 106.58 114.03 113.65 110.85 C 113.88 137.26 113.66 163.67 113.75 190.07 C 113.71 191.69 113.95 193.63 115.71 194.28 C 138.73 207.28 161.41 220.90 184.52 233.73 C 184.52 234.11 184.53 234.88 184.53 235.26 C 177.84 238.52 171.76 242.90 165.01 246.05 C 146.39 235.80 128.14 224.85 109.68 214.31 C 104.27 211.09 98.66 208.19 93.39 204.75 C 93.42 177.26 93.37 149.76 93.41 122.27 Z" />
</g>
<g id="#d5a75aff">
<path fill="#d5a75a" opacity="1.00" d=" M 79.42 106.44 C 107.99 90.07 136.40 73.41 165.03 57.15 C 194.75 73.93 224.15 91.30 253.81 108.20 C 255.58 109.23 257.85 110.48 257.35 112.94 C 257.31 146.97 257.41 181.01 257.30 215.04 C 257.53 216.87 255.67 217.63 254.44 218.48 C 227.33 233.97 200.37 249.72 173.30 265.26 C 170.53 266.71 168.06 268.89 165.01 269.69 C 162.21 268.90 159.93 266.96 157.41 265.59 C 132.03 250.98 106.70 236.29 81.31 221.70 C 78.58 220.08 75.67 218.70 73.19 216.69 C 72.35 213.54 72.86 210.22 72.75 207.00 C 72.75 176.33 72.80 145.65 72.73 114.97 C 72.86 113.44 72.50 111.75 73.30 110.36 C 75.09 108.70 77.33 107.66 79.42 106.44 M 134.46 98.45 C 134.36 126.12 134.34 153.81 134.47 181.48 C 158.46 194.91 182.06 209.02 206.00 222.52 C 216.30 216.74 226.62 210.96 236.68 204.78 C 236.68 192.99 236.86 181.20 236.61 169.41 C 216.21 157.63 195.88 145.74 175.40 134.10 C 175.34 141.93 175.26 149.77 175.42 157.60 C 188.03 165.00 200.74 172.24 213.40 179.55 C 214.37 180.30 215.83 180.75 216.17 182.06 C 216.62 185.69 216.32 189.36 216.27 193.00 C 212.90 194.98 209.76 197.54 206.00 198.71 C 203.18 197.94 200.88 195.99 198.34 194.62 C 184.44 186.51 170.46 178.51 156.50 170.48 C 154.31 169.57 154.83 166.92 154.70 165.04 C 154.76 148.34 154.76 131.65 154.70 114.96 C 154.82 113.43 154.51 111.76 155.27 110.36 C 158.16 107.87 161.70 106.32 165.02 104.49 C 185.39 115.81 205.40 127.80 225.67 139.31 C 229.30 141.32 232.71 143.78 236.66 145.17 C 236.79 137.53 236.73 129.88 236.69 122.24 C 214.47 109.08 191.94 96.41 169.66 83.35 C 168.14 82.50 166.57 81.74 165.00 81.00 C 154.66 86.52 144.61 92.58 134.46 98.45 M 93.41 122.27 C 93.37 149.76 93.42 177.26 93.39 204.75 C 98.66 208.19 104.27 211.09 109.68 214.31 C 128.14 224.85 146.39 235.80 165.01 246.05 C 171.76 242.90 177.84 238.52 184.53 235.26 C 184.53 234.88 184.52 234.11 184.52 233.73 C 161.41 220.90 138.73 207.28 115.71 194.28 C 113.95 193.63 113.71 191.69 113.75 190.07 C 113.66 163.67 113.88 137.26 113.65 110.85 C 106.58 114.03 100.08 118.35 93.41 122.27 Z" />
</g>
</svg>
